# xmcd
#
# Track frame offsets:
#	150
#	15080
#	31907
#	50783
#	70427
#	86099
#	102373
#	126073
#	138325
#	153652
#
# Disc length: 2202 seconds
#
# Revision: 1
# Processed by: cddbd v1.5.2PL0 Copyright (c) Steve Scherf et al.
# Submitted via: audiograbber 1.83.01
#
DISCID=8208980a
DTITLE=Ray Stevens - Greatest Hits (The 50th Anniversary Collection)
DYEAR=2008
DGENRE=Country
TTITLE0=The Streak
TTITLE1=The Mississippi Squirrel Revival
TTITLE2=It's Me Again, Margaret
TTITLE3=Ahab The Arab
TTITLE4=Gitarzan
TTITLE5=Everything IS Beautiful
TTITLE6=Shriner's Convention
TTITLE7=Misty
TTITLE8=Osama Yo' Mama
TTITLE9=Jeremiah Peabody's Polyunsaturated Quick-Dissolving Fast-Acting Pleasan
TTITLE9=t Tasting Green And Purple Pills
EXTD=
EXTT0=
EXTT1=
EXTT2=
EXTT3=
EXTT4=
EXTT5=
EXTT6=
EXTT7=
EXTT8=
EXTT9=
PLAYORDER=
